# xmcd
#
# Track frame offsets:
#	150
#	20741
#	37899
#	55116
#	69941
#	90253
#	106388
#	128795
#	151110
#	168307
#
# Disc length: 2522 seconds
#
# Revision: 4
# Processed by: cddbd v1.5.2PL0 Copyright (c) Steve Scherf et al.
# Submitted via: EasyCDDAExtractor 10.0.3.1
#
DISCID=6e09d80a
DTITLE=K.D Lang - Ingenue
DYEAR=1992
DGENRE=Blues
TTITLE0=Save Me
TTITLE1=The Mind of Love
TTITLE2=Miss Chatelaine
TTITLE3=Wash Me Clean
TTITLE4=So It Shall Be
TTITLE5=Still Thrives This Love
TTITLE6=Season of Hollow Soul
TTITLE7=Outside Myself
TTITLE8=Tears of Love's Recall
TTITLE9=Constant Craving
EXTD=YEAR: 1992
EXTT0=
EXTT1=
EXTT2=
EXTT3=
EXTT4=
EXTT5=
EXTT6=
EXTT7=
EXTT8=
EXTT9=
PLAYORDER=
